<svg width="224" height="49" viewBox="0 0 224 49" fill="none" xmlns="http://www.w3.org/2000/svg">
<path fill-rule="evenodd" clip-rule="evenodd" d="M24.7094 4.60683C29.9024 4.60683 34.6258 6.61783 38.1432 9.90355C39.2486 8.87656 40.3615 7.8486 41.4716 6.83037C37.0686 2.60023 31.088 0 24.5 0C10.969 0 0 10.969 0 24.5C0 38.031 10.969 49 24.5 49C38.031 49 49 38.031 49 24.5C49 19.9542 47.762 15.6975 45.6047 12.0488C44.609 13.4179 43.6188 14.7938 42.6435 16.1659C43.7673 18.6428 44.3932 21.3936 44.3932 24.2906C44.3932 35.1616 35.5804 43.9744 24.7094 43.9744C13.8384 43.9744 5.02564 35.1616 5.02564 24.2906C5.02564 13.4196 13.8384 4.60683 24.7094 4.60683ZM12.5641 23.059L15.7431 19.873L23.5682 26.4901C30.9043 19.3011 46.2612 4.77622 49 4.18803C42.7236 12.0305 29.3882 29.6271 26.2581 37.2735L12.5641 23.059Z" fill="#212121"/>
<path d="M66.5 32.5V12.88H70.16V32.5H66.5ZM63.5 32.5L63.32 31.54C63.78 31.28 64.32 31.05 64.94 30.85C65.56 30.65 66.13 30.47 66.65 30.31L66.68 32.5H63.5ZM69.17 32.5L69.26 30.49L73.4 31.03L73.37 32.5H69.17ZM59.69 18.4C59.61 17.92 59.54 17.41 59.48 16.87C59.42 16.33 59.37 15.79 59.33 15.25C59.29 14.71 59.27 14.22 59.27 13.78C59.27 13.32 59.28 12.96 59.3 12.7L62.24 13.81L61.7 18.4H59.69ZM59.81 15.16L59.3 12.7C60.56 12.74 61.8 12.77 63.02 12.79C64.24 12.81 65.43 12.83 66.59 12.85C67.75 12.85 68.91 12.85 70.07 12.85C71.25 12.83 72.44 12.81 73.64 12.79C74.84 12.77 76.07 12.74 77.33 12.7L76.85 15.16L68.33 14.65L59.81 15.16ZM74.93 18.4L74.39 13.81L77.33 12.7C77.35 12.96 77.36 13.32 77.36 13.78C77.36 14.22 77.34 14.71 77.3 15.25C77.26 15.79 77.21 16.33 77.15 16.87C77.09 17.41 77.02 17.92 76.94 18.4H74.93ZM79.6346 32.5V19.09L81.8246 17.83L83.1446 19.03V32.5H79.6346ZM77.4746 32.5L77.3546 31.48C77.7946 31.26 78.3246 31.04 78.9446 30.82C79.5846 30.6 80.1246 30.44 80.5646 30.34L80.1746 32.5H77.4746ZM81.7346 32.5L82.0046 30.13C82.5646 30.21 83.1546 30.33 83.7746 30.49C84.3946 30.63 84.9046 30.82 85.3046 31.06L85.1846 32.5H81.7346ZM77.3846 20.26L77.1146 18.82C77.7946 18.52 78.5546 18.29 79.3946 18.13C80.2346 17.95 81.0446 17.85 81.8246 17.83L82.0646 19.03L80.4146 20.32L77.3846 20.26ZM81.5846 15.52C81.1046 15.32 80.6046 15.02 80.0846 14.62C79.5646 14.22 79.1546 13.82 78.8546 13.42C79.1146 12.86 79.4446 12.34 79.8446 11.86C80.2446 11.36 80.6446 10.97 81.0446 10.69C81.5646 10.91 82.0646 11.24 82.5446 11.68C83.0246 12.1 83.4046 12.51 83.6846 12.91C83.4846 13.39 83.1846 13.88 82.7846 14.38C82.4046 14.86 82.0046 15.24 81.5846 15.52ZM88.7459 32.5V19.09L90.9359 17.83L92.2559 19.09V32.5H88.7459ZM97.6859 32.5V23.74C97.6859 22.62 97.4959 21.82 97.1159 21.34C96.7559 20.86 96.2959 20.63 95.7359 20.65C95.3159 20.65 94.8359 20.77 94.2959 21.01C93.7559 21.23 93.2059 21.51 92.6459 21.85C92.0859 22.19 91.5659 22.54 91.0859 22.9L90.6659 21.82C91.5659 21.1 92.4559 20.46 93.3359 19.9C94.2159 19.32 95.0259 18.86 95.7659 18.52C96.5059 18.16 97.1159 17.94 97.5959 17.86C97.9759 17.9 98.3659 18.02 98.7659 18.22C99.1859 18.4 99.5759 18.64 99.9359 18.94C100.296 19.22 100.586 19.55 100.806 19.93C100.906 20.11 100.976 20.34 101.016 20.62C101.076 20.9 101.116 21.27 101.136 21.73C101.176 22.19 101.196 22.79 101.196 23.53V32.5H97.6859ZM106.656 32.5V23.74C106.656 22.62 106.466 21.82 106.086 21.34C105.706 20.86 105.236 20.63 104.676 20.65C104.256 20.65 103.776 20.77 103.236 21.01C102.696 21.23 102.146 21.51 101.586 21.85C101.026 22.19 100.506 22.54 100.026 22.9L99.6359 21.82C100.536 21.1 101.426 20.46 102.306 19.9C103.186 19.32 103.986 18.86 104.706 18.52C105.446 18.16 106.056 17.94 106.536 17.86C106.936 17.9 107.336 18.02 107.736 18.22C108.156 18.4 108.546 18.64 108.906 18.94C109.266 19.22 109.546 19.55 109.746 19.93C109.846 20.11 109.926 20.34 109.986 20.62C110.046 20.9 110.086 21.27 110.106 21.73C110.146 22.19 110.166 22.79 110.166 23.53V32.5H106.656ZM86.4959 20.26L86.2259 18.82C86.9059 18.52 87.6659 18.29 88.5059 18.13C89.3459 17.95 90.1559 17.85 90.9359 17.83L91.1759 19.03L89.5259 20.32L86.4959 20.26ZM86.7059 32.5L86.5859 31.48C87.0259 31.26 87.5559 31.04 88.1759 30.82C88.8159 30.6 89.3559 30.44 89.7959 30.34L89.4059 32.5H86.7059ZM90.6959 32.5L90.9659 30.13C91.5059 30.21 92.0659 30.33 92.6459 30.49C93.2259 30.63 93.7259 30.82 94.1459 31.06L93.9959 32.5H90.6959ZM96.1259 32.5L96.0059 31.48C96.4459 31.26 96.9759 31.04 97.5959 30.82C98.2359 30.6 98.7759 30.44 99.2159 30.34L98.8259 32.5H96.1259ZM99.6359 32.5L99.9059 30.13C100.466 30.21 101.046 30.33 101.646 30.49C102.266 30.63 102.786 30.82 103.206 31.06L103.056 32.5H99.6359ZM105.096 32.5L104.976 31.48C105.416 31.26 105.946 31.04 106.566 30.82C107.206 30.6 107.746 30.44 108.186 30.34L107.796 32.5H105.096ZM108.636 32.5L108.906 30.13C109.466 30.21 110.066 30.33 110.706 30.49C111.366 30.63 111.906 30.82 112.326 31.06L112.176 32.5H108.636ZM120.898 32.92C119.678 32.98 118.578 32.83 117.598 32.47C116.618 32.11 115.778 31.6 115.078 30.94C114.378 30.26 113.848 29.47 113.488 28.57C113.128 27.67 112.948 26.69 112.948 25.63C112.948 24.57 113.128 23.57 113.488 22.63C113.848 21.67 114.348 20.83 114.988 20.11C115.628 19.37 116.378 18.79 117.238 18.37C118.118 17.95 119.068 17.74 120.088 17.74C120.848 17.74 121.578 17.87 122.278 18.13C122.978 18.37 123.598 18.73 124.138 19.21C124.678 19.69 125.098 20.28 125.398 20.98C125.718 21.68 125.868 22.48 125.848 23.38L122.578 24.22C122.678 23.4 122.568 22.65 122.248 21.97C121.948 21.29 121.498 20.75 120.898 20.35C120.298 19.95 119.598 19.76 118.798 19.78C118.238 20.1 117.788 20.55 117.448 21.13C117.108 21.71 116.858 22.34 116.698 23.02C116.538 23.7 116.458 24.36 116.458 25C116.458 26.14 116.668 27.11 117.088 27.91C117.508 28.69 118.068 29.29 118.768 29.71C119.488 30.11 120.298 30.31 121.198 30.31C121.818 30.31 122.438 30.22 123.058 30.04C123.678 29.86 124.338 29.61 125.038 29.29L125.578 30.7L120.898 32.92ZM124.108 25.06L115.828 24.94L115.708 23.2L124.798 22.72L125.848 23.38L124.108 25.06ZM140.501 24.82L140.471 22.3C141.071 22.46 141.651 22.58 142.211 22.66C142.791 22.74 143.291 22.78 143.711 22.78C144.591 22.78 145.321 22.66 145.901 22.42C146.501 22.18 146.961 21.86 147.281 21.46C147.621 21.04 147.861 20.59 148.001 20.11C148.141 19.61 148.211 19.11 148.211 18.61C148.211 17.79 148.041 17.03 147.701 16.33C147.381 15.63 146.861 15.08 146.141 14.68L141.101 15.16L135.641 12.88L144.611 12.64C146.251 12.64 147.621 12.92 148.721 13.48C149.841 14.04 150.681 14.78 151.241 15.7C151.801 16.6 152.081 17.56 152.081 18.58C152.081 19.58 151.801 20.56 151.241 21.52C150.701 22.46 149.901 23.24 148.841 23.86C147.801 24.46 146.521 24.77 145.001 24.79L140.501 24.82ZM135.401 32.5L135.221 31.54C135.681 31.28 136.161 31.05 136.661 30.85C137.161 30.65 137.671 30.47 138.191 30.31L138.221 32.5H135.401ZM140.171 32.5L140.261 30.49L144.401 31.03L144.371 32.5H140.171ZM137.771 32.5V12.88H141.431V32.5H137.771ZM149.741 32.5L149.831 30.55L153.971 31.03L153.941 32.5H149.741ZM138.731 14.68L135.611 14.38L135.641 12.88H138.701L138.731 14.68ZM148.661 32.5L143.831 23.62L147.401 23.35L153.041 32.5H148.661ZM162.03 32.92C160.81 32.98 159.71 32.83 158.73 32.47C157.75 32.11 156.91 31.6 156.21 30.94C155.51 30.26 154.98 29.47 154.62 28.57C154.26 27.67 154.08 26.69 154.08 25.63C154.08 24.57 154.26 23.57 154.62 22.63C154.98 21.67 155.48 20.83 156.12 20.11C156.76 19.37 157.51 18.79 158.37 18.37C159.25 17.95 160.2 17.74 161.22 17.74C161.98 17.74 162.71 17.87 163.41 18.13C164.11 18.37 164.73 18.73 165.27 19.21C165.81 19.69 166.23 20.28 166.53 20.98C166.85 21.68 167 22.48 166.98 23.38L163.71 24.22C163.81 23.4 163.7 22.65 163.38 21.97C163.08 21.29 162.63 20.75 162.03 20.35C161.43 19.95 160.73 19.76 159.93 19.78C159.37 20.1 158.92 20.55 158.58 21.13C158.24 21.71 157.99 22.34 157.83 23.02C157.67 23.7 157.59 24.36 157.59 25C157.59 26.14 157.8 27.11 158.22 27.91C158.64 28.69 159.2 29.29 159.9 29.71C160.62 30.11 161.43 30.31 162.33 30.31C162.95 30.31 163.57 30.22 164.19 30.04C164.81 29.86 165.47 29.61 166.17 29.29L166.71 30.7L162.03 32.92ZM165.24 25.06L156.96 24.94L156.84 23.2L165.93 22.72L166.98 23.38L165.24 25.06ZM175.921 32.92C175.121 32.92 174.271 32.81 173.371 32.59C172.491 32.39 171.621 32.1 170.761 31.72L172.351 29.17C172.631 29.45 173.021 29.74 173.521 30.04C174.041 30.32 174.651 30.53 175.351 30.67C176.071 30.81 176.841 30.83 177.661 30.73C178.381 30.23 178.931 29.5 179.311 28.54C179.711 27.58 179.911 26.59 179.911 25.57C179.911 24.73 179.771 23.94 179.491 23.2C179.211 22.46 178.821 21.86 178.321 21.4C177.821 20.94 177.221 20.71 176.521 20.71C175.881 20.71 175.211 20.9 174.511 21.28C173.831 21.64 173.141 22.06 172.441 22.54L172.171 21.25L177.001 17.98C178.001 17.76 178.901 17.81 179.701 18.13C180.521 18.43 181.221 18.92 181.801 19.6C182.401 20.26 182.851 21.05 183.151 21.97C183.471 22.87 183.631 23.84 183.631 24.88C183.631 26 183.451 27.05 183.091 28.03C182.731 28.99 182.211 29.84 181.531 30.58C180.871 31.32 180.061 31.9 179.101 32.32C178.161 32.72 177.101 32.92 175.921 32.92ZM168.301 38.59L168.181 37.57C168.621 37.37 169.151 37.16 169.771 36.94C170.411 36.74 170.951 36.57 171.391 36.43L171.001 38.59H168.301ZM172.801 38.59L173.071 36.22C173.631 36.34 174.201 36.47 174.781 36.61C175.361 36.77 175.861 36.95 176.281 37.15L176.131 38.59H172.801ZM170.161 38.59V19.09L172.351 17.83L173.671 19.03V38.59H170.161ZM167.941 20.26L167.671 18.82C168.351 18.52 169.111 18.29 169.951 18.13C170.791 17.95 171.601 17.85 172.381 17.83L172.681 18.76L170.971 20.32L167.941 20.26ZM191.923 33.1C190.643 33.1 189.463 32.79 188.383 32.17C187.323 31.53 186.463 30.63 185.803 29.47C185.143 28.31 184.813 26.94 184.813 25.36C184.813 23.74 185.143 22.36 185.803 21.22C186.463 20.08 187.323 19.22 188.383 18.64C189.463 18.04 190.613 17.74 191.833 17.74C193.093 17.74 194.243 18.05 195.283 18.67C196.323 19.27 197.153 20.15 197.773 21.31C198.413 22.45 198.733 23.85 198.733 25.51C198.733 27.17 198.413 28.57 197.773 29.71C197.153 30.83 196.323 31.68 195.283 32.26C194.263 32.82 193.143 33.1 191.923 33.1ZM192.193 30.91C192.593 30.91 193.003 30.84 193.423 30.7C193.903 30.38 194.263 29.95 194.503 29.41C194.743 28.87 194.903 28.29 194.983 27.67C195.063 27.03 195.103 26.42 195.103 25.84C195.103 24.78 194.983 23.81 194.743 22.93C194.523 22.03 194.153 21.31 193.633 20.77C193.133 20.21 192.463 19.93 191.623 19.93C191.243 19.93 190.883 19.99 190.543 20.11C190.203 20.21 189.923 20.34 189.703 20.5C189.263 21.04 188.943 21.73 188.743 22.57C188.563 23.41 188.473 24.27 188.473 25.15C188.473 26.15 188.603 27.09 188.863 27.97C189.123 28.85 189.523 29.56 190.063 30.1C190.623 30.64 191.333 30.91 192.193 30.91ZM202.301 32.5V19.09L204.491 17.83L205.811 19.06V32.5H202.301ZM204.701 25.48L204.071 23.44L208.931 18.28C209.611 18 210.261 17.9 210.881 17.98C211.501 18.04 212.051 18.24 212.531 18.58C212.571 18.96 212.571 19.38 212.531 19.84C212.511 20.3 212.471 20.77 212.411 21.25C212.351 21.73 212.271 22.21 212.171 22.69C212.071 23.15 211.961 23.58 211.841 23.98H209.801L209.381 20.62C208.881 20.9 208.351 21.27 207.791 21.73C207.251 22.19 206.711 22.73 206.171 23.35C205.631 23.97 205.141 24.68 204.701 25.48ZM200.051 20.26L199.781 18.82C200.461 18.52 201.221 18.29 202.061 18.13C202.901 17.95 203.711 17.85 204.491 17.83L204.731 19.03L203.081 20.32L200.051 20.26ZM200.231 32.5L200.111 31.48C200.531 31.26 201.051 31.04 201.671 30.82C202.311 30.6 202.851 30.44 203.291 30.34L202.931 32.5H200.231ZM205.031 32.5L205.301 30.19C205.661 30.21 206.071 30.27 206.531 30.37C207.011 30.45 207.471 30.55 207.911 30.67C208.351 30.77 208.701 30.9 208.961 31.06L208.841 32.5H205.031ZM218.806 32.95C218.306 32.97 217.796 32.85 217.276 32.59C216.776 32.35 216.346 32.01 215.986 31.57C215.646 31.13 215.476 30.67 215.476 30.19V18.88L216.946 14.65H218.686L218.986 19.12V28.51C218.986 29.07 219.056 29.47 219.196 29.71C219.356 29.93 219.626 30.04 220.006 30.04C220.386 30.04 220.816 29.98 221.296 29.86C221.776 29.74 222.226 29.61 222.646 29.47L223.066 30.91L218.806 32.95ZM213.496 21.04L213.316 19.54C213.956 19.16 214.616 18.85 215.296 18.61C215.976 18.35 216.656 18.11 217.336 17.89L218.086 19.3L217.066 21.01L213.496 21.04ZM217.036 21.07V18.4H223.096L223.186 19.48L221.746 21.07H217.036Z" fill="#212121"/>
</svg>
